REM DIRINDEX 1\2,1\3,1\4,1\5,1\6
REM DIRNAME cjc129,folder01,folder02,folder03,folder04,folder05
TITLE ""
FILE "DISC1Track15.mp3" MP3
  TRACK 01 AUDIO
    TITLE "0:"
    INDEX 01 00:00:00
  TRACK 02 AUDIO
    TITLE "2:cjc129_0397"
    INDEX 01 00:03:14
  TRACK 03 AUDIO
    TITLE "0:"
    INDEX 01 00:07:43
  TRACK 04 AUDIO
    TITLE "3:cjc129_0398"
    INDEX 01 00:08:56
  TRACK 05 AUDIO
    TITLE "0:"
    INDEX 01 00:11:70
  TRACK 06 AUDIO
    TITLE "5:cjc129_0399"
    INDEX 01 00:12:26
  TRACK 07 AUDIO
    TITLE "0:"
    INDEX 01 00:13:32
  TRACK 08 AUDIO
    TITLE "4:cjc129_0400"
    INDEX 01 00:14:25
  TRACK 09 AUDIO
    TITLE "0:"
    INDEX 01 00:17:41
  TRACK 10 AUDIO
    TITLE "6:cjc129_0401"
    INDEX 01 00:17:70
  TRACK 11 AUDIO
    TITLE "0:"
    INDEX 01 00:24:20
  TRACK 12 AUDIO
    TITLE "3:cjc129_0402"
    INDEX 01 00:25:70
  TRACK 13 AUDIO
    TITLE "0:"
    INDEX 01 00:27:04
  TRACK 14 AUDIO
    TITLE "5:cjc129_0403"
    INDEX 01 00:28:51
  TRACK 15 AUDIO
    TITLE "0:"
    INDEX 01 00:29:70
  TRACK 16 AUDIO
    TITLE "4:cjc129_0404"
    INDEX 01 00:30:57
  TRACK 17 AUDIO
    TITLE "0:"
    INDEX 01 00:31:67
  TRACK 18 AUDIO
    TITLE "6:cjc129_0405"
    INDEX 01 00:32:27
  TRACK 19 AUDIO
    TITLE "0:"
    INDEX 01 00:38:73
  TRACK 20 AUDIO
    TITLE "3:cjc129_0406"
    INDEX 01 00:40:48
  TRACK 21 AUDIO
    TITLE "0:"
    INDEX 01 00:41:59
  TRACK 22 AUDIO
    TITLE "5:cjc129_0407"
    INDEX 01 00:43:17
  TRACK 23 AUDIO
    TITLE "0:"
    INDEX 01 00:45:02
  TRACK 24 AUDIO
    TITLE "4:cjc129_0408"
    INDEX 01 00:45:67
  TRACK 25 AUDIO
    TITLE "0:"
    INDEX 01 00:47:01
  TRACK 26 AUDIO
    TITLE "6:cjc129_0409"
    INDEX 01 00:47:36
  TRACK 27 AUDIO
    TITLE "0:"
    INDEX 01 00:53:70
  TRACK 28 AUDIO
    TITLE "3:cjc129_0410"
    INDEX 01 00:55:48
  TRACK 29 AUDIO
    TITLE "0:"
    INDEX 01 00:56:55
  TRACK 30 AUDIO
    TITLE "5:cjc129_0411"
    INDEX 01 00:58:28
  TRACK 31 AUDIO
    TITLE "0:"
    INDEX 01 01:01:05
  TRACK 32 AUDIO
    TITLE "4:cjc129_0412"
    INDEX 01 01:01:68
  TRACK 33 AUDIO
    TITLE "0:"
    INDEX 01 01:03:02
  TRACK 34 AUDIO
    TITLE "6:cjc129_0413"
    INDEX 01 01:03:33
  TRACK 35 AUDIO
    TITLE "0:"
    INDEX 01 01:08:07
  TRACK 36 AUDIO
    TITLE "3:cjc129_0414"
    INDEX 01 01:09:57
  TRACK 37 AUDIO
    TITLE "0:"
    INDEX 01 01:10:65
  TRACK 38 AUDIO
    TITLE "5:cjc129_0415"
    INDEX 01 01:12:23
  TRACK 39 AUDIO
    TITLE "0:"
    INDEX 01 01:13:40
  TRACK 40 AUDIO
    TITLE "4:cjc129_0416"
    INDEX 01 01:14:29
  TRACK 41 AUDIO
    TITLE "0:"
    INDEX 01 01:15:35
  TRACK 42 AUDIO
    TITLE "6:cjc129_0417"
    INDEX 01 01:15:68
  TRACK 43 AUDIO
    TITLE "0:"
    INDEX 01 01:20:16
  TRACK 44 AUDIO
    TITLE "3:cjc129_0418"
    INDEX 01 01:21:67
  TRACK 45 AUDIO
    TITLE "0:"
    INDEX 01 01:23:01
  TRACK 46 AUDIO
    TITLE "5:cjc129_0419"
    INDEX 01 01:24:45
  TRACK 47 AUDIO
    TITLE "0:"
    INDEX 01 01:26:64
  TRACK 48 AUDIO
    TITLE "4:cjc129_0420"
    INDEX 01 01:27:51
  TRACK 49 AUDIO
    TITLE "0:"
    INDEX 01 01:28:59
  TRACK 50 AUDIO
    TITLE "6:cjc129_0421"
    INDEX 01 01:29:15
  TRACK 51 AUDIO
    TITLE "0:"
    INDEX 01 01:32:19
  TRACK 52 AUDIO
    TITLE "3:cjc129_0422"
    INDEX 01 01:33:70
  TRACK 53 AUDIO
    TITLE "0:"
    INDEX 01 01:35:16
  TRACK 54 AUDIO
    TITLE "5:cjc129_0423"
    INDEX 01 01:35:49
  TRACK 55 AUDIO
    TITLE "0:"
    INDEX 01 01:38:08
  TRACK 56 AUDIO
    TITLE "4:cjc129_0424"
    INDEX 01 01:38:73
  TRACK 57 AUDIO
    TITLE "0:"
    INDEX 01 01:40:19
  TRACK 58 AUDIO
    TITLE "6:cjc129_0425"
    INDEX 01 01:40:50
  TRACK 59 AUDIO
    TITLE "0:"
    INDEX 01 01:45:59
